<svg width="20" height="20" viewBox="0 0 20 20" fill="none" xmlns="http://www.w3.org/2000/svg">
<path fill-rule="evenodd" clip-rule="evenodd" d="M5.91937 15.3229C7.12264 16 8.51104 16.3869 9.98962 16.3888C9.76529 16.3888 9.58337 16.5707 9.58337 16.795V17.2221C9.58337 17.6823 9.21029 18.0554 8.75004 18.0554H6.25004C6.01992 18.0554 5.83337 18.242 5.83337 18.4721C5.83337 18.7022 6.01992 18.8888 6.25005 18.8888H13.75C13.9801 18.8888 14.1667 18.7022 14.1667 18.4721C14.1667 18.242 13.9801 18.0554 13.75 18.0554H11.25C10.7898 18.0554 10.4167 17.6823 10.4167 17.2221V16.795C10.4167 16.5707 10.2348 16.3888 10.0105 16.3888C14.608 16.3831 18.3334 12.6543 18.3334 8.05541C18.3334 5.00716 16.6967 2.34118 14.2542 0.888259C14.0617 0.773742 13.8155 0.845084 13.7035 1.03908C13.5855 1.24355 13.6618 1.50427 13.864 1.62608C16.0428 2.93832 17.5 5.32668 17.5 8.05541C17.5 12.1976 14.1422 15.5554 10 15.5554C8.68096 15.5554 7.44145 15.2149 6.36457 14.6169C6.1579 14.5022 5.89355 14.5663 5.77536 14.771C5.66351 14.9648 5.72442 15.2133 5.91937 15.3229ZM10 14.7221C13.682 14.7221 16.6667 11.7373 16.6667 8.05542C16.6667 4.37352 13.682 1.38875 10 1.38875C6.31814 1.38875 3.33337 4.37352 3.33337 8.05542C3.33337 11.7373 6.31814 14.7221 10 14.7221ZM10 13.8888C12.0097 13.8888 13.782 12.8725 14.8311 11.3258L13.3932 10.4956C12.3532 12.1466 10.973 13.3393 9.62304 13.8768C9.74771 13.8848 9.87337 13.8888 10 13.8888ZM15.0017 11.059C15.038 10.9987 15.0733 10.9375 15.1075 10.8758L15.0017 11.059ZM13.8099 9.77392L15.2485 10.6045C15.6231 9.83433 15.8334 8.96942 15.8334 8.05542C15.8334 6.85739 15.4722 5.74373 14.8529 4.81733C15.0626 6.25535 14.7199 8.04741 13.8099 9.77392ZM13.255 3.251C14.441 4.33055 14.383 6.88936 13.0879 9.35708L10.5692 7.90292L13.255 3.251ZM12.5333 2.83433L9.84754 7.48625L7.32886 6.03211C8.81846 3.67669 11.0054 2.34703 12.5333 2.83433ZM9.43087 8.20792L6.91219 6.75379C5.61716 9.2215 5.55912 11.7803 6.7451 12.8598L9.43087 8.20792ZM10.377 2.23407C9.02704 2.77156 7.64682 3.96427 6.60685 5.61526L5.16895 4.78508C6.21801 3.23838 7.99034 2.22208 10 2.22208C10.1267 2.22208 10.2524 2.22612 10.377 2.23407ZM4.89187 5.23638C4.92653 5.17372 4.9623 5.11177 4.99917 5.05055L4.89187 5.23638ZM6.19019 6.33694L4.75163 5.5064C4.37692 6.2765 4.16671 7.14141 4.16671 8.05542C4.16671 9.25342 4.52787 10.3671 5.14724 11.2935C4.93743 9.8555 5.28019 8.06342 6.19019 6.33694ZM12.6712 10.0788L10.1525 8.62458L7.46678 13.2765C8.99471 13.7638 11.1816 12.4342 12.6712 10.0788Z" fill="#5A616E"/>
</svg>
