<svg width="19" height="23" viewBox="0 0 19 23" fill="none" xmlns="http://www.w3.org/2000/svg">
<path d="M0 19.55V17.25H2.375V9.2C2.375 7.60917 2.86979 6.20042 3.85938 4.97375C4.84896 3.72792 6.13542 2.91333 7.71875 2.53V1.725C7.71875 1.24583 7.88698 0.843333 8.22344 0.517499C8.57969 0.1725 9.00521 0 9.5 0C9.99479 0 10.4104 0.1725 10.7469 0.517499C11.1031 0.843333 11.2812 1.24583 11.2812 1.725V2.53C12.8646 2.91333 14.151 3.72792 15.1406 4.97375C16.1302 6.20042 16.625 7.60917 16.625 9.2V17.25H19V19.55H0ZM9.5 23C8.84688 23 8.28281 22.7796 7.80781 22.3387C7.35261 21.8787 7.125 21.3325 7.125 20.7H11.875C11.875 21.3325 11.6375 21.8787 11.1625 22.3387C10.7073 22.7796 10.1531 23 9.5 23ZM4.75 17.25H14.25V9.2C14.25 7.935 13.7849 6.85208 12.8547 5.95125C11.9245 5.05042 10.8063 4.6 9.5 4.6C8.19375 4.6 7.07552 5.05042 6.14531 5.95125C5.2151 6.85208 4.75 7.935 4.75 9.2V17.25Z" fill="#49454F"/>
</svg>
