<svg width="234" height="50" viewBox="0 0 234 50" fill="none" xmlns="http://www.w3.org/2000/svg">
<g clip-path="url(#clip0_323_120)">
<path d="M97.6255 40.7561V12.9883H103.41V40.7621H97.6255V40.7561Z" fill="#152135"/>
<path d="M133.494 12.9883V40.7621H127.041L118.504 27.8216C117.777 26.6788 117.16 25.6847 116.654 24.8454C116.148 24.0002 115.659 23.0538 115.182 21.9942V40.768H109.397V12.9883H115.763L125.056 27.2145C125.167 27.3871 125.423 27.7799 125.813 28.393C126.203 29.0061 126.564 29.5835 126.884 30.1311C127.204 30.6728 127.477 31.2026 127.704 31.7145V12.9883H133.488H133.494Z" fill="#152135"/>
<path d="M157.369 12.9883H163.444V13.3335L153.517 40.7621H146.942L136.968 13.3335V12.9883H143.252L150.334 34.6311L157.375 12.9883H157.369Z" fill="#152135"/>
<path d="M172.708 35.7859H185.277V40.7561H166.924V12.9883H185.068V17.9169H172.708V24.1728H183.392L182.711 29.0597H172.708V35.7859Z" fill="#152135"/>
<path d="M187.873 38.0178L190.555 33.7737C193.15 35.4583 195.693 36.3035 198.178 36.3035C199.772 36.3035 201.018 36.0475 201.925 35.5297C202.833 35.0178 203.287 34.244 203.287 33.2142C203.287 32.5833 203.142 32.0654 202.845 31.6487C202.554 31.2321 202.036 30.8333 201.297 30.4464C200.558 30.0594 199.447 29.5654 197.969 28.9702L197.003 28.5833C195.216 27.869 193.779 27.1844 192.685 26.5237C191.597 25.869 190.73 25.0237 190.09 23.994C189.45 22.9642 189.124 21.6666 189.124 20.0952C189.124 18.3511 189.612 16.9047 190.59 15.744C191.568 14.5892 192.825 13.738 194.361 13.1964C195.897 12.6547 197.532 12.3809 199.26 12.3809C200.826 12.3809 202.438 12.6428 204.102 13.1725C205.766 13.7023 207.349 14.4821 208.856 15.5059L206.15 19.7083C204.818 18.8809 203.636 18.2797 202.612 17.9106C201.588 17.5416 200.477 17.3511 199.284 17.3511C197.951 17.3511 196.944 17.5773 196.264 18.0356C195.583 18.494 195.245 19.1071 195.245 19.8809C195.245 20.369 195.385 20.8035 195.664 21.1904C195.944 21.5773 196.438 21.9642 197.166 22.3452C197.887 22.7321 198.929 23.1785 200.29 23.6964L201.21 24.0416C202.985 24.7261 204.422 25.369 205.522 25.9702C206.616 26.5714 207.541 27.4285 208.291 28.5416C209.042 29.6547 209.415 31.1011 209.415 32.869C209.415 34.6368 208.937 36.2916 207.989 37.5594C207.04 38.8333 205.749 39.7797 204.113 40.4106C202.478 41.0416 200.628 41.3511 198.562 41.3511C194.372 41.3511 190.811 40.238 187.878 38.0059L187.873 38.0178Z" fill="#152135"/>
<path d="M234 12.9883V18.1728H225.37V40.7561H219.586V18.1728H210.916V12.9883H234Z" fill="#152135"/>
<path d="M18.1437 17.9169H5.7841V24.8573H16.4678L15.787 29.7442H5.7841V40.7561H0V12.9883H18.1437V17.9169Z" fill="#268DE7"/>
<path d="M27.9892 35.5299H40.4768V40.7561H22.2109V12.9883H27.995V35.5299H27.9892Z" fill="#268DE7"/>
<path d="M49.8163 35.7859H62.3854V40.7561H44.0322V12.9883H62.1759V17.9169H49.8163V24.1728H60.5L59.8192 29.0597H49.8163V35.7859Z" fill="#268DE7"/>
<path d="M92.9063 0L97.6372 6.85714H95.0245L77.9282 33.2679L73.9829 27.2202L87.5819 6.85714H85.2194L92.9063 0Z" fill="#268DE7"/>
<path d="M65.3125 13.7085H73.1333L78.0445 21.1371L73.9828 27.2204L65.3125 13.7085Z" fill="#268DE7"/>
<path d="M72.9994 28.631L77.1367 34.4762L73.1973 40.7262H65.3125L72.9994 28.631Z" fill="#268DE7"/>
<path d="M82.8455 28.631L96.846 50H88.8856L78.8711 34.6786L82.8455 28.631Z" fill="#268DE7"/>
</g>
<defs>
<clipPath id="clip0_323_120">
<rect width="234" height="50" fill="white"/>
</clipPath>
</defs>
</svg>
